<?xml version="1.0" encoding="UTF-8"?>
<svg xmlns="http://www.w3.org/2000/svg" xmlns:xlink="http://www.w3.org/1999/xlink" width="248.2pt" height="91.53pt" viewBox="0 0 248.2 91.53" version="1.1">
<defs>
<clipPath id="clip1">
  <path d="M 231 25 L 248.199219 25 L 248.199219 69 L 231 69 Z M 231 25 "/>
</clipPath>
<clipPath id="clip2">
  <path d="M 151 0 L 227 0 L 227 91.53125 L 151 91.53125 Z M 151 0 "/>
</clipPath>
</defs>
<g id="surface1">
<path style=" stroke:none;fill-rule:nonzero;fill:rgb(28.199768%,33.699036%,37.998962%);fill-opacity:1;" d="M 26.09375 40.726563 L 8.65625 40.726563 L 8.65625 22.9375 L 0 22.9375 L 0 67.59375 L 8.65625 67.59375 L 8.65625 48.964844 L 26.09375 48.964844 L 26.09375 67.59375 L 34.75 67.59375 L 34.75 22.9375 L 26.09375 22.9375 L 26.09375 40.726563 "/>
<path style=" stroke:none;fill-rule:nonzero;fill:rgb(28.199768%,33.699036%,37.998962%);fill-opacity:1;" d="M 93.082031 60.261719 C 87.992188 60.261719 83.726563 55.75 83.726563 50.257813 C 83.726563 44.699219 87.925781 40.253906 93.082031 40.253906 C 98.046875 40.253906 102.3125 44.832031 102.3125 50.191406 C 102.3125 55.683594 98.109375 60.261719 93.082031 60.261719 Z M 93.527344 32.800781 C 89.644531 32.800781 86.65625 34.109375 84.234375 36.984375 L 84.234375 22.144531 L 76.660156 22.144531 L 76.660156 44.699219 C 76.660156 52.285156 76.726563 53.199219 77.808594 56.46875 C 79.972656 63.140625 86.210938 67.714844 93.210938 67.714844 C 102.757813 67.714844 110.140625 60.066406 110.140625 50.257813 C 110.140625 40.648438 102.691406 32.800781 93.527344 32.800781 "/>
<path style=" stroke:none;fill-rule:nonzero;fill:rgb(28.199768%,33.699036%,37.998962%);fill-opacity:1;" d="M 163.453125 60.46875 C 158.300781 60.46875 154.097656 56.023438 154.097656 50.464844 C 154.097656 44.972656 158.363281 40.460938 163.453125 40.460938 C 168.480469 40.460938 172.683594 45.039063 172.683594 50.53125 C 172.683594 55.890625 168.417969 60.46875 163.453125 60.46875 Z M 163.582031 33.007813 C 156.582031 33.007813 150.34375 37.585938 148.179688 44.253906 C 147.097656 47.523438 147.035156 48.4375 147.035156 56.023438 L 147.035156 78.582031 L 154.609375 78.582031 L 154.609375 63.738281 C 157.027344 66.613281 160.019531 67.921875 163.898438 67.921875 C 173.0625 67.921875 180.511719 60.078125 180.511719 50.464844 C 180.511719 40.65625 173.128906 33.007813 163.582031 33.007813 "/>
<path style=" stroke:none;fill-rule:nonzero;fill:rgb(28.199768%,33.699036%,37.998962%);fill-opacity:1;" d="M 129.832031 40.566406 L 125.972656 39.242188 C 123.921875 38.511719 122.613281 36.921875 122.613281 34.9375 C 122.613281 32.285156 124.855469 30.433594 128.277344 30.433594 C 130.890625 30.433594 132.507813 31.226563 134.871094 33.542969 L 135.742188 34.40625 L 141.40625 28.511719 C 136.988281 23.277344 134.3125 21.953125 128.027344 21.953125 C 119.875 21.953125 113.964844 27.585938 113.964844 35.332031 C 113.964844 41.359375 117.386719 45.796875 123.796875 47.984375 L 127.09375 49.109375 C 131.886719 50.765625 133.191406 52.023438 133.191406 54.675781 C 133.191406 57.71875 130.703125 59.773438 127.09375 59.773438 C 123.671875 59.773438 121.183594 58.316406 118.753906 54.871094 L 113.09375 61.03125 C 117.636719 66.792969 120.621094 68.316406 127.28125 68.316406 C 135.683594 68.316406 141.84375 62.488281 141.84375 54.476563 C 141.84375 47.585938 138.234375 43.414063 129.832031 40.566406 "/>
<g clip-path="url(#clip1)" clip-rule="nonzero">
<path style=" stroke:none;fill-rule:nonzero;fill:rgb(28.199768%,33.699036%,37.998962%);fill-opacity:1;" d="M 245.273438 60.480469 C 240.179688 60.480469 238.589844 59.140625 238.589844 54.71875 L 238.589844 41.917969 L 246.164063 41.917969 L 246.164063 34.550781 L 238.589844 34.550781 L 238.589844 25.027344 L 231.015625 28.980469 L 231.015625 54.71875 C 231.015625 64.230469 234.644531 68.316406 243.042969 68.316406 C 244.0625 68.316406 244.570313 68.25 246.164063 68.183594 L 248.199219 60.144531 C 246.800781 60.414063 246.226563 60.480469 245.273438 60.480469 "/>
</g>
<path style=" stroke:none;fill-rule:nonzero;fill:rgb(28.199768%,33.699036%,37.998962%);fill-opacity:1;" d="M 62.617188 53.507813 C 62.617188 57.375 59.484375 60.507813 55.617188 60.507813 L 55.242188 60.507813 C 51.378906 60.507813 48.242188 57.375 48.242188 53.507813 L 48.242188 33.882813 L 40.367188 33.882813 L 40.367188 53.714844 C 40.367188 61.449219 46.636719 67.714844 54.367188 67.714844 L 56.242188 67.714844 C 63.976563 67.714844 70.242188 61.449219 70.242188 53.714844 L 70.242188 33.882813 L 62.617188 33.882813 L 62.617188 53.507813 "/>
<g clip-path="url(#clip2)" clip-rule="nonzero">
<path style=" stroke:none;fill-rule:nonzero;fill:rgb(93.699646%,43.099976%,13.699341%);fill-opacity:1;" d="M 205.929688 63.019531 C 199.175781 63.019531 193.699219 57.542969 193.699219 50.789063 C 193.699219 44.035156 199.175781 38.558594 205.929688 38.558594 C 212.6875 38.558594 218.160156 44.035156 218.160156 50.789063 C 218.160156 57.542969 212.6875 63.019531 205.929688 63.019531 Z M 208.132813 29.972656 L 208.132813 20.257813 C 211.488281 19.328125 213.960938 16.257813 213.960938 12.601563 C 213.960938 8.207031 210.398438 4.648438 206.007813 4.648438 C 201.613281 4.648438 198.054688 8.207031 198.054688 12.601563 C 198.054688 15.976563 200.160156 18.855469 203.132813 20.007813 L 203.132813 29.972656 C 200.390625 30.300781 197.8125 31.148438 195.503906 32.429688 L 168.300781 11.976563 C 168.710938 10.964844 168.941406 9.859375 168.941406 8.699219 C 168.941406 3.894531 165.046875 -0.00390625 160.238281 -0.00390625 C 155.433594 -0.00390625 151.535156 3.894531 151.535156 8.699219 C 151.535156 13.507813 155.433594 17.402344 160.238281 17.402344 C 162.066406 17.402344 163.761719 16.835938 165.164063 15.875 L 191.292969 35.519531 C 187.242188 39.335938 184.699219 44.738281 184.699219 50.742188 C 184.699219 58.253906 188.664063 64.820313 194.605469 68.511719 L 188.128906 78.820313 C 187.890625 78.792969 187.644531 78.773438 187.398438 78.773438 C 183.878906 78.773438 181.019531 81.628906 181.019531 85.152344 C 181.019531 88.675781 183.878906 91.53125 187.398438 91.53125 C 190.921875 91.53125 193.777344 88.675781 193.777344 85.152344 C 193.777344 83.703125 193.289063 82.375 192.476563 81.304688 L 199.171875 70.648438 C 201.207031 71.308594 203.375 71.675781 205.632813 71.675781 C 217.191406 71.675781 226.5625 62.304688 226.5625 50.742188 C 226.5625 40.03125 218.511719 31.210938 208.132813 29.972656 "/>
</g>
<path style=" stroke:none;fill-rule:nonzero;fill:rgb(100%,86.299133%,64.698792%);fill-opacity:1;" d="M 156.664063 6.214844 C 155.828125 7.640625 154.664063 8.53125 154.0625 8.203125 C 153.464844 7.875 153.648438 6.449219 154.484375 5.023438 C 155.320313 3.597656 156.488281 2.707031 157.089844 3.035156 C 157.6875 3.363281 157.5 4.785156 156.664063 6.214844 "/>
<path style=" stroke:none;fill-rule:nonzero;fill:rgb(100%,86.299133%,64.698792%);fill-opacity:1;" d="M 206.144531 6.636719 C 207.867188 6.796875 209.097656 7.453125 208.890625 8.109375 C 208.683594 8.757813 207.113281 9.160156 205.390625 9.003906 C 203.664063 8.84375 202.433594 8.183594 202.640625 7.53125 C 202.851563 6.878906 204.417969 6.480469 206.144531 6.636719 "/>
<path style=" stroke:none;fill-rule:nonzero;fill:rgb(100%,86.299133%,64.698792%);fill-opacity:1;" d="M 184.183594 81.234375 C 185.4375 80.042969 186.742188 79.554688 187.09375 80.140625 C 187.449219 80.726563 186.71875 82.171875 185.460938 83.363281 C 184.203125 84.554688 182.898438 85.046875 182.546875 84.457031 C 182.191406 83.871094 182.925781 82.425781 184.183594 81.234375 "/>
</g>
</svg>
