<?xml version="1.0" encoding="utf-8"?>
<!-- Generator: Adobe Illustrator 24.2.3, SVG Export Plug-In . SVG Version: 6.00 Build 0)  -->
<svg version="1.1" id="Layer_1" xmlns="http://www.w3.org/2000/svg" xmlns:xlink="http://www.w3.org/1999/xlink" x="0px" y="0px"
	 viewBox="0 0 248 246" style="enable-background:new 0 0 248 246;" xml:space="preserve">
<style type="text/css">
	.st0{fill-rule:evenodd;clip-rule:evenodd;fill:#FFFFFF;}
	.st1{fill:none;stroke:#CBD6E2;stroke-width:1.5;}
	.st2{fill-rule:evenodd;clip-rule:evenodd;fill:#FF7A59;}
</style>
<desc>Created with Sketch.</desc>
<g id="Home">
	<g id="Style-Guide---Homepage" transform="translate(-180.000000, -5385.000000)">
		<g id="Group-24" transform="translate(180.000000, 5385.000000)">
			<g id="Rectangle-3">
				<g>
					<rect id="path-1" x="-9.07" y="-9" class="st0" width="266.15" height="264"/>
				</g>
				<rect x="-8.27" y="-8.2" class="st1" width="264.54" height="262.39"/>
			</g>
			<g id="_x2D_-Marketing_x2F_Logos_x2F_Sprocket" transform="translate(53.000000, 49.000000)">
				<path id="Marketing_x2F_Logos_x2F_Sprocket" class="st2" d="M106.2,109.18c-11.88,0-21.51-9.53-21.51-21.28
					c0-11.75,9.63-21.28,21.51-21.28s21.51,9.53,21.51,21.28C127.7,99.65,118.08,109.18,106.2,109.18 M112.64,46.92V27.99
					c4.99-2.33,8.49-7.33,8.49-13.13v-0.44c0-8.01-6.62-14.56-14.71-14.56h-0.44c-8.09,0-14.71,6.55-14.71,14.56v0.44
					c0,5.8,3.5,10.8,8.49,13.14v18.93c-7.43,1.14-14.23,4.17-19.83,8.64L27.4,15.12c0.35-1.32,0.59-2.67,0.59-4.1
					C28,1.96,20.58-5.4,11.42-5.41C2.26-5.42-5.18,1.92-5.2,10.99s7.41,16.43,16.57,16.44c2.99,0,5.75-0.84,8.17-2.2l51.67,39.78
					c-4.39,6.56-6.97,14.43-6.97,22.89c0,8.86,2.83,17.06,7.61,23.8l-15.71,15.55c-1.24-0.37-2.53-0.63-3.9-0.63
					c-7.53,0-13.64,6.04-13.64,13.49c0,7.45,6.11,13.49,13.64,13.49c7.53,0,13.64-6.04,13.64-13.49c0-1.35-0.26-2.62-0.63-3.85
					l15.54-15.38c7.06,5.33,15.84,8.53,25.4,8.53c23.17,0,41.95-18.59,41.95-41.51C148.14,67.14,132.74,50,112.64,46.92"/>
			</g>
		</g>
	</g>
</g>
</svg>
