<?xml version="1.0" encoding="UTF-8"?>
<svg width="218px" height="177px" viewBox="0 0 218 177" version="1.1" xmlns="http://www.w3.org/2000/svg" xmlns:xlink="http://www.w3.org/1999/xlink">
    <!-- Generator: Sketch 51.1 (57501) - http://www.bohemiancoding.com/sketch -->
    <title>v</title>
    <desc>Created with Sketch.</desc>
    <defs></defs>
    <g id="Circles" stroke="none" stroke-width="1" fill="none" fill-rule="evenodd" fill-opacity="0.2">
        <g id="v" fill="#FFFFFF">
            <g id="Group-2-Copy">
                <g id="Group-8">
                    <path d="M31.1313844,88.5081563 C31.3080748,137.042328 70.7947336,176.243378 119.328906,176.069108 C167.863078,175.892418 207.064127,136.403339 206.887437,87.8691666 C206.713167,39.3374149 167.226508,0.133944729 118.689916,0.310635062 C70.1581643,0.487325395 30.9546941,39.9739842 31.1313844,88.5081563" id="Fill-1"></path>
                    <path d="M195.788138,19.8736435 C195.809921,26.004556 200.798398,30.9567262 206.92931,30.9349425 C213.060223,30.9131587 218.012393,25.9246823 217.990609,19.7937698 C217.968826,13.6628573 212.980349,8.71068713 206.849437,8.73247087 C200.718524,8.75425461 195.766354,13.742731 195.788138,19.8736435 M197.175036,19.8688027 C197.155672,14.5124231 201.497898,10.1411527 206.854277,10.1217894 C212.210657,10.1024261 216.581927,14.4422311 216.603711,19.7986106 C216.620654,25.1549902 212.278429,29.5262606 206.92447,29.5480444 C201.56809,29.5674077 197.194399,25.2251822 197.175036,19.8688027" id="Fill-4"></path>
                    <path d="M0.000484083105,79.4623373 C0.0222678228,85.2568121 4.73481684,89.9330549 10.5244508,89.9112711 C16.3165051,89.8919078 20.9951683,85.1793588 20.975805,79.3873045 C20.9540213,73.5952501 16.2414722,68.9190073 10.4494179,68.9383706 C4.65736355,68.957734 -0.0212996566,73.670283 0.000484083105,79.4623373 M8.30250932,79.4332924 C8.29766849,78.2279254 9.27551636,77.2452367 10.4808833,77.2403959 C11.6838298,77.2355551 12.6665185,78.2109825 12.6713593,79.4163494 C12.6762002,80.6217164 11.6983523,81.6068255 10.4954058,81.6116663 C9.29003886,81.6165072 8.30735015,80.6362389 8.30250932,79.4332924" id="Fill-7"></path>
                    <path d="M24.4445025,148.973525 C24.459025,152.938165 27.6830184,156.137955 31.6476591,156.123432 C35.6098793,156.10891 38.8096686,152.884916 38.7951461,148.922696 C38.7806236,144.960476 35.5566301,141.758266 31.5944099,141.772788 C27.6297693,141.787311 24.42998,145.011304 24.4445025,148.973525 M26.1847812,148.968684 C26.1726792,145.969789 28.6027763,143.522749 31.6016712,143.510647 C34.5981456,143.500965 37.0451857,145.931062 37.0548674,148.927537 C37.0669694,151.926432 34.6368722,154.371051 31.6403978,154.383153 C28.641503,154.395255 26.1944629,151.965158 26.1847812,148.968684" id="Fill-9"></path>
                </g>
            </g>
        </g>
    </g>
</svg>