<?xml version="1.0" encoding="UTF-8"?>
<svg width="270px" height="180px" viewBox="0 0 270 180" version="1.1" xmlns="http://www.w3.org/2000/svg" xmlns:xlink="http://www.w3.org/1999/xlink">
    <!-- Generator: Sketch 51.1 (57501) - http://www.bohemiancoding.com/sketch -->
    <title>Group 6 Copy 2</title>
    <desc>Created with Sketch.</desc>
    <defs></defs>
    <g id="Circles" stroke="none" stroke-width="1" fill="none" fill-rule="evenodd" fill-opacity="0.2">
        <g id="Artboard" fill="#FFFFFF">
            <g id="Group-6">
                <path d="M25.2274692,84.8969132 C1.00424188,98.9969805 -7.20295664,130.062927 6.89846569,154.286155 C20.997178,178.509382 52.0644799,186.716581 76.2877073,172.616513 C100.50958,158.516446 108.715423,127.450499 94.6167108,103.227272 C80.5179985,79.0040444 49.4506966,70.7982009 25.2274692,84.8969132 M45.4385594,119.619989 C50.476427,116.686427 56.9614282,118.400494 59.8949901,123.438362 C62.8271971,128.47623 61.1131297,134.961231 56.0766171,137.893438 C51.0373945,140.827 44.5523933,139.114287 41.6201864,134.075065 C38.6879794,129.037197 40.3993368,122.552196 45.4385594,119.619989" id="Fill-1"></path>
                <path d="M133.122451,81.1342524 C118.602336,89.5853498 113.682353,108.207032 122.134805,122.727148 C130.587258,137.247263 149.20894,142.167246 163.729055,133.716149 C178.249171,125.263696 183.169154,106.640659 174.715347,92.1205436 C166.264249,77.6017831 147.642567,72.6831549 133.122451,81.1342524 M135.67255,85.5149479 C147.753676,78.4838842 163.302232,82.5908709 170.334651,94.6719972 C177.365715,106.751769 173.258728,122.301679 161.177602,129.332743 C149.09783,136.365162 133.547919,132.258175 126.516856,120.177049 C119.485792,108.095923 123.592779,92.5473667 135.67255,85.5149479" id="Fill-4"></path>
                <path d="M138.396596,89.8422058 C128.413,95.65242 125.03229,108.455758 130.842504,118.439354 C136.652719,128.421594 149.454702,131.803659 159.436942,125.993445 C169.420538,120.181876 172.802603,107.378538 166.992389,97.3962972 C161.18082,87.4140566 148.377482,84.0319916 138.396596,89.8422058 M140.946695,94.2242563 C148.496721,89.8286558 158.214738,92.3963694 162.610338,99.9463959 C167.004584,107.497777 164.438225,117.215794 156.886844,121.61004 C149.336817,126.004285 139.6188,123.437926 135.2232,115.8879 C130.828955,108.336519 133.396668,98.6198568 140.946695,94.2242563" id="Fill-6"></path>
                <path d="M193.701581,10.05263 C199.319386,19.7056071 196.049785,32.0848321 186.398163,37.7026371 C176.745186,43.3217972 164.367316,40.0521967 158.748156,30.3992196 C153.130351,20.7475975 156.399952,8.36701752 166.052929,2.74785749 C175.704551,-2.86994754 188.083776,0.401007922 193.701581,10.05263" id="Fill-9"></path>
                <path d="M267.898239,25.0387086 C270.713916,29.8760371 269.074373,36.0805545 264.237045,38.897587 C259.399716,41.7132645 253.193844,40.0750767 250.378166,35.2350383 C247.561134,30.3977098 249.200677,24.1931923 254.038005,21.3775148 C258.878044,18.5618374 265.082561,20.2000251 267.898239,25.0387086" id="Fill-12"></path>
            </g>
        </g>
    </g>
</svg>